<svg xmlns="http://www.w3.org/2000/svg" viewBox="0 0 449.59 176.76"><defs><style>.cls-1{font-size:100px;fill:#fff;font-family:DINCondensed-Bold, DIN Condensed;font-weight:700;}.cls-2{letter-spacing:-0.01em;}.cls-3{letter-spacing:0em;}.cls-4{fill:none;stroke:#fff;stroke-miterlimit:10;stroke-width:3px;}</style></defs><title>WEBAsset 1</title><g id="Layer_2" data-name="Layer 2"><g id="Layer_1-2" data-name="Layer 1"><text class="cls-1" transform="translate(56.05 85.6)">V<tspan class="cls-2" x="40.7" y="0">O</tspan><tspan class="cls-3" x="82.1" y="0">TE YOUR</tspan></text><path class="cls-4" d="M1.5,174.66v-71.2H17.9q18,0,18,20.9A26.33,26.33,0,0,1,34,135.06a15.08,15.08,0,0,1-6.85,7.1l11,32.5H27.3l-9.5-30.4H11.7v30.4Zm10.2-61.6v22.2h5.8a10.27,10.27,0,0,0,4.3-.75,5.78,5.78,0,0,0,2.5-2.15,9.8,9.8,0,0,0,1.1-3.45,33.11,33.11,0,0,0,.3-4.75,33.21,33.21,0,0,0-.3-4.75,9.55,9.55,0,0,0-1.2-3.55c-1.27-1.86-3.67-2.8-7.2-2.8Z"/><path class="cls-4" d="M44.1,174.66v-71.2H74.5v9.6H54.3V134H71.9v9.6H54.3v20.9H74.5v10.2Z"/><path class="cls-4" d="M81.1,174.66v-71.2H96.4a22.82,22.82,0,0,1,7.4,1.1,14.4,14.4,0,0,1,5.8,3.9,15.34,15.34,0,0,1,3.6,6.55,41.32,41.32,0,0,1,1,10.15,50,50,0,0,1-.55,8.1,17,17,0,0,1-2.35,6.2,14.86,14.86,0,0,1-5.6,5.45,18.86,18.86,0,0,1-9.2,2H91.3v27.8Zm10.2-61.6v24.2h4.9a10.43,10.43,0,0,0,4.8-.9,5.7,5.7,0,0,0,2.5-2.5,9.18,9.18,0,0,0,1-3.7c.1-1.46.15-3.1.15-4.9s0-3.25-.1-4.75a10.43,10.43,0,0,0-.9-4,5.71,5.71,0,0,0-2.4-2.6,9.54,9.54,0,0,0-4.6-.9Z"/><path class="cls-4" d="M121.8,174.66v-71.2h16.4q18,0,18,20.9a26.33,26.33,0,0,1-1.95,10.7,15.12,15.12,0,0,1-6.85,7.1l11,32.5H147.6l-9.5-30.4H132v30.4Zm10.2-61.6v22.2h5.8a10.27,10.27,0,0,0,4.3-.75,5.84,5.84,0,0,0,2.5-2.15,9.8,9.8,0,0,0,1.1-3.45,37.75,37.75,0,0,0,0-9.5,9.55,9.55,0,0,0-1.2-3.55c-1.27-1.86-3.67-2.8-7.2-2.8Z"/><path class="cls-4" d="M164.4,174.66v-71.2h30.4v9.6H174.6V134h17.6v9.6H174.6v20.9h20.2v10.2Z"/><path class="cls-4" d="M234.4,124H224.2v-2.3a10.9,10.9,0,0,0-1.65-6q-1.65-2.55-5.55-2.55a6.43,6.43,0,0,0-3.4.8,6.71,6.71,0,0,0-2.1,2,8.35,8.35,0,0,0-1.1,3,19.26,19.26,0,0,0-.3,3.45,33.77,33.77,0,0,0,.15,3.5,6.59,6.59,0,0,0,.75,2.5,5.44,5.44,0,0,0,1.75,1.9,15.19,15.19,0,0,0,3.15,1.6l7.8,3.1a19.68,19.68,0,0,1,5.5,3,13.26,13.26,0,0,1,3.3,4.05,19.18,19.18,0,0,1,1.5,5.45,55.24,55.24,0,0,1,.4,7,36.61,36.61,0,0,1-.9,8.35,17.62,17.62,0,0,1-2.9,6.55,14.35,14.35,0,0,1-5.5,4.4,19.38,19.38,0,0,1-8.3,1.6,18.07,18.07,0,0,1-6.9-1.3,16.12,16.12,0,0,1-5.5-3.6,17.28,17.28,0,0,1-3.65-5.35,16.23,16.23,0,0,1-1.35-6.65v-3.8h10.2v3.2a8.32,8.32,0,0,0,1.65,5.05q1.65,2.25,5.55,2.25a9,9,0,0,0,4-.75,5.42,5.42,0,0,0,2.25-2.15,7.93,7.93,0,0,0,1-3.35q.15-2,.15-4.35a44.1,44.1,0,0,0-.2-4.6,8.09,8.09,0,0,0-.8-2.9,5.79,5.79,0,0,0-1.85-1.8,26.39,26.39,0,0,0-3-1.5l-7.3-3q-6.6-2.7-8.85-7.15a24.57,24.57,0,0,1-2.25-11.15,25.68,25.68,0,0,1,1.1-7.6,17.24,17.24,0,0,1,3.3-6.2,15.21,15.21,0,0,1,5.35-4.15,17.88,17.88,0,0,1,7.75-1.55,17,17,0,0,1,6.95,1.4,18.17,18.17,0,0,1,5.45,3.7,15.48,15.48,0,0,1,4.6,11Z"/><path class="cls-4" d="M242,174.66v-71.2h30.4v9.6H252.2V134h17.6v9.6H252.2v20.9h20.2v10.2Z"/><path class="cls-4" d="M278.6,174.66v-71.2h9.8l15.4,42.9h.2v-42.9h10.2v71.2h-9.6L289,131.86h-.2v42.8Z"/><path class="cls-4" d="M330.1,174.66v-61.6H318.3v-9.6h33.8v9.6H340.3v61.6Z"/><path class="cls-4" d="M356.89,174.66v-71.2h10.2v71.2Z"/><path class="cls-4" d="M411.59,103.46,397,174.66h-9l-14.5-71.2h10.8l8.1,49.7h.2l8.2-49.7Z"/><path class="cls-4" d="M417.69,174.66v-71.2h30.4v9.6h-20.2V134h17.6v9.6h-17.6v20.9h20.2v10.2Z"/></g></g></svg>